<?xml version="1.0" encoding="UTF-8"?>
<!DOCTYPE svg PUBLIC "-//W3C//DTD SVG 1.1//EN" "http://www.w3.org/Graphics/SVG/1.1/DTD/svg11.dtd">
<!-- Creator: CorelDRAW X7 -->
<svg xmlns="http://www.w3.org/2000/svg" xml:space="preserve" width="210mm" height="297mm" version="1.1" style="shape-rendering:geometricPrecision; text-rendering:geometricPrecision; image-rendering:optimizeQuality; fill-rule:evenodd; clip-rule:evenodd"
viewBox="0 0 21000 29700"
 xmlns:xlink="http://www.w3.org/1999/xlink">
 <defs>
  <style type="text/css">
   <![CDATA[
    .fil0 {fill:white}
   ]]>
  </style>
 </defs>
 <g id="Layer_x0020_1">
  <metadata id="CorelCorpID_0Corel-Layer"/>
  <path class="fil0" d="M20531 3549l-20086 0c-688,1 -1246,559 -1246,1247l0 20086c1,688 559,1245 1247,1245l10814 0 0 -8731 -2933 0 0 -3418 2933 0 0 -2515c0,-2916 1781,-4504 4382,-4504 1246,0 2317,93 2629,135l0 3048 -1794 0c-1415,0 -1689,673 -1689,1660l0 2176 3384 0 -441 3418 -2943 0 0 8731 5743 0c688,0 1246,-557 1246,-1246 0,0 0,0 0,0l0 -20086c0,-688 -558,-1246 -1246,-1246zm0 0z"/>
 </g>
</svg>
