<?xml version="1.0" encoding="UTF-8"?>
<!DOCTYPE svg PUBLIC "-//W3C//DTD SVG 1.1//EN" "http://www.w3.org/Graphics/SVG/1.1/DTD/svg11.dtd">
<!-- Creator: CorelDRAW X7 -->
<svg xmlns="http://www.w3.org/2000/svg" xml:space="preserve" width="210mm" height="297mm" version="1.1" style="shape-rendering:geometricPrecision; text-rendering:geometricPrecision; image-rendering:optimizeQuality; fill-rule:evenodd; clip-rule:evenodd"
viewBox="0 0 21000 29700"
 xmlns:xlink="http://www.w3.org/1999/xlink">
 <defs>
  <style type="text/css">
   <![CDATA[
    .fil0 {fill:white}
   ]]>
  </style>
 </defs>
 <g id="Layer_x0020_1">
  <metadata id="CorelCorpID_0Corel-Layer"/>
  <path class="fil0" d="M19496 11137c-42,-958 -197,-1617 -419,-2187 -229,-606 -581,-1148 -1043,-1599 -450,-458 -996,-814 -1595,-1039 -574,-222 -1229,-377 -2187,-419 -965,-46 -1271,-56 -3719,-56 -2447,0 -2753,10 -3715,52 -958,43 -1616,198 -2187,419 -605,229 -1148,581 -1599,1043 -457,451 -813,996 -1038,1595 -222,574 -377,1229 -419,2187 -46,965 -57,1271 -57,3719 0,2447 11,2754 53,3715 42,958 197,1616 419,2187 229,606 585,1148 1042,1599 451,458 997,813 1596,1039 574,221 1229,376 2187,419 961,42 1267,52 3715,52 2447,0 2754,-10 3715,-52 958,-43 1617,-198 2187,-419 1212,-469 2169,-1427 2638,-2638 222,-574 377,-1229 419,-2187 42,-961 53,-1268 53,-3715 0,-2448 -4,-2754 -46,-3715l0 0zm-1624 7360c-38,880 -186,1355 -309,1672 -303,786 -927,1409 -1712,1712 -317,123 -796,271 -1673,310 -951,42 -1236,52 -3641,52 -2405,0 -2694,-10 -3641,-52 -881,-39 -1356,-187 -1673,-310 -391,-145 -747,-373 -1035,-673 -300,-292 -529,-644 -673,-1035 -123,-317 -271,-796 -310,-1673 -42,-951 -53,-1236 -53,-3641 0,-2405 11,-2694 53,-3641 39,-881 187,-1356 310,-1673 144,-391 373,-747 676,-1036 292,-299 644,-528 1035,-672 317,-123 796,-271 1673,-310 951,-42 1236,-53 3641,-53 2409,0 2694,11 3642,53 880,39 1356,187 1673,310 390,144 746,373 1035,672 299,293 528,645 673,1036 123,317 271,796 309,1673 43,950 53,1236 53,3641 0,2405 -10,2687 -53,3638l0 0zm0 0z"/>
  <path class="fil0" d="M10533 10221c-2556,0 -4630,2074 -4630,4631 0,2556 2074,4631 4630,4631 2557,0 4631,-2075 4631,-4631 0,-2557 -2074,-4631 -4631,-4631zm0 7635c-1658,0 -3003,-1346 -3003,-3004 0,-1659 1345,-3004 3003,-3004 1659,0 3004,1345 3004,3004 0,1658 -1345,3004 -3004,3004zm0 0z"/>
  <path class="fil0" d="M16429 10038c0,597 -484,1081 -1082,1081 -597,0 -1081,-484 -1081,-1081 0,-597 484,-1081 1081,-1081 598,0 1082,484 1082,1081zm0 0z"/>
 </g>
</svg>
